<?xml version="1.0" encoding="UTF-8" standalone="no"?>
<!DOCTYPE svg PUBLIC "-//W3C//DTD SVG 1.1//EN"
 "http://www.w3.org/Graphics/SVG/1.1/DTD/svg11.dtd">
<!-- Generated by graphviz version 7.1.0 (20230121.1956)
 -->
<!-- Title: Herencia Pages: 1 -->
<svg width="472pt" height="609pt"
 viewBox="0.00 0.00 472.00 609.00" xmlns="http://www.w3.org/2000/svg" xmlns:xlink="http://www.w3.org/1999/xlink">
<g id="graph0" class="graph" transform="scale(1 1) rotate(0) translate(4 605)">
<title>Herencia</title>
<polygon fill="white" stroke="none" points="-4,4 -4,-605 468,-605 468,4 -4,4"/>
<!-- p1 -->
<g id="node1" class="node">
<title>p1</title>
<polygon fill="#fbb4ae" stroke="black" points="69.5,-511.5 69.5,-600.5 158.5,-600.5 158.5,-511.5 69.5,-511.5"/>
<text text-anchor="middle" x="114" y="-582.3" font-family="Times New Roman,serif" font-size="14.00">p1</text>
<text text-anchor="start" x="76.5" y="-567.3" font-family="Times New Roman,serif" font-size="14.00">{</text>
<text text-anchor="start" x="76.5" y="-552.3" font-family="Times New Roman,serif" font-size="14.00">x:5, y:1, z:10,</text>
<text text-anchor="start" x="76.5" y="-537.3" font-family="Times New Roman,serif" font-size="14.00">&lt;prototype&gt;</text>
<text text-anchor="start" x="76.5" y="-522.3" font-family="Times New Roman,serif" font-size="14.00">}</text>
</g>
<!-- protopunto3d -->
<g id="node2" class="node">
<title>protopunto3d</title>
<polygon fill="#fed9a6" stroke="black" points="0,-355.5 0,-474.5 228,-474.5 228,-355.5 0,-355.5"/>
<text text-anchor="start" x="7" y="-456.3" font-family="Times New Roman,serif" font-size="14.00">prototype(Punto3D)</text>
<text text-anchor="start" x="7" y="-441.3" font-family="Times New Roman,serif" font-size="14.00">{</text>
<text text-anchor="start" x="7" y="-426.3" font-family="Times New Roman,serif" font-size="14.00"> mostrar:mostrar(),</text>
<text text-anchor="start" x="7" y="-411.3" font-family="Times New Roman,serif" font-size="14.00"> tipo:&quot;tridimensional&quot;, </text>
<text text-anchor="start" x="7" y="-396.3" font-family="Times New Roman,serif" font-size="14.00"> constructor: function Punto3D(x,y,z) </text>
<text text-anchor="start" x="7" y="-381.3" font-family="Times New Roman,serif" font-size="14.00"> &lt;prototype&gt;</text>
<text text-anchor="start" x="7" y="-366.3" font-family="Times New Roman,serif" font-size="14.00"> }</text>
</g>
<!-- p1&#45;&gt;protopunto3d -->
<g id="edge1" class="edge">
<title>p1&#45;&gt;protopunto3d</title>
<path fill="none" stroke="black" d="M114,-511.78C114,-503.43 114,-494.49 114,-485.55"/>
<polygon fill="black" stroke="black" points="117.5,-485.77 114,-475.77 110.5,-485.77 117.5,-485.77"/>
</g>
<!-- conspunto3d -->
<g id="node3" class="node">
<title>conspunto3d</title>
<polygon fill="#ccebc5" stroke="black" points="38,-199.5 38,-318.5 190,-318.5 190,-199.5 38,-199.5"/>
<text text-anchor="middle" x="114" y="-300.3" font-family="Times New Roman,serif" font-size="14.00">Punto3D (constructor)</text>
<text text-anchor="start" x="45" y="-285.3" font-family="Times New Roman,serif" font-size="14.00">{</text>
<text text-anchor="start" x="45" y="-270.3" font-family="Times New Roman,serif" font-size="14.00"> name: &quot;Punto3D&quot;,</text>
<text text-anchor="start" x="45" y="-255.3" font-family="Times New Roman,serif" font-size="14.00"> Punto3D(x, y, z){...},</text>
<text text-anchor="start" x="45" y="-240.3" font-family="Times New Roman,serif" font-size="14.00"> &lt;prototype(Punto3D)&gt;,</text>
<text text-anchor="start" x="45" y="-225.3" font-family="Times New Roman,serif" font-size="14.00"> ... </text>
<text text-anchor="start" x="45" y="-210.3" font-family="Times New Roman,serif" font-size="14.00">}</text>
</g>
<!-- protopunto3d&#45;&gt;conspunto3d -->
<g id="edge2" class="edge">
<title>protopunto3d&#45;&gt;conspunto3d</title>
<path fill="none" stroke="black" d="M107.43,-355.78C107.26,-347.25 107.21,-338.4 107.28,-329.67"/>
<polygon fill="black" stroke="black" points="110.77,-329.86 107.41,-319.82 103.78,-329.77 110.77,-329.86"/>
</g>
<!-- protopunto2d -->
<g id="node4" class="node">
<title>protopunto2d</title>
<polygon fill="#fed9a6" stroke="black" points="208.5,-199.5 208.5,-318.5 427.5,-318.5 427.5,-199.5 208.5,-199.5"/>
<text text-anchor="middle" x="318" y="-300.3" font-family="Times New Roman,serif" font-size="14.00">prototype(Punto2D)</text>
<text text-anchor="start" x="215.5" y="-285.3" font-family="Times New Roman,serif" font-size="14.00">{</text>
<text text-anchor="start" x="215.5" y="-270.3" font-family="Times New Roman,serif" font-size="14.00"> comentario:&quot;Dos dimensiones&quot;,</text>
<text text-anchor="start" x="215.5" y="-255.3" font-family="Times New Roman,serif" font-size="14.00"> mostrar: mostrar(),</text>
<text text-anchor="start" x="215.5" y="-240.3" font-family="Times New Roman,serif" font-size="14.00"> constructor: function Punto2D(x,y),</text>
<text text-anchor="start" x="215.5" y="-225.3" font-family="Times New Roman,serif" font-size="14.00"> &lt;prototype(Object)&gt;</text>
<text text-anchor="start" x="215.5" y="-210.3" font-family="Times New Roman,serif" font-size="14.00"> }</text>
</g>
<!-- protopunto3d&#45;&gt;protopunto2d -->
<g id="edge3" class="edge">
<title>protopunto3d&#45;&gt;protopunto2d</title>
<path fill="none" stroke="black" d="M191.41,-355.56C204.51,-345.67 218.18,-335.35 231.49,-325.3"/>
<polygon fill="black" stroke="black" points="233.56,-328.13 239.43,-319.31 229.34,-322.54 233.56,-328.13"/>
</g>
<!-- conspunto3d&#45;&gt;protopunto3d -->
<g id="edge4" class="edge">
<title>conspunto3d&#45;&gt;protopunto3d</title>
<path fill="none" stroke="black" d="M120.57,-318.3C120.74,-326.83 120.79,-335.69 120.72,-344.42"/>
<polygon fill="black" stroke="black" points="117.22,-344.22 120.59,-354.27 124.22,-344.31 117.22,-344.22"/>
</g>
<!-- conspunto2d -->
<g id="node5" class="node">
<title>conspunto2d</title>
<polygon fill="#ccebc5" stroke="black" points="244,-73.5 244,-162.5 392,-162.5 392,-73.5 244,-73.5"/>
<text text-anchor="middle" x="318" y="-144.3" font-family="Times New Roman,serif" font-size="14.00">Punto2D (constructor)</text>
<text text-anchor="start" x="251" y="-129.3" font-family="Times New Roman,serif" font-size="14.00">{</text>
<text text-anchor="start" x="251" y="-114.3" font-family="Times New Roman,serif" font-size="14.00"> name: &quot;Punto2D&quot;</text>
<text text-anchor="start" x="251" y="-99.3" font-family="Times New Roman,serif" font-size="14.00"> &lt;prototype(Punto2D)&gt;</text>
<text text-anchor="start" x="251" y="-84.3" font-family="Times New Roman,serif" font-size="14.00">}</text>
</g>
<!-- protopunto2d&#45;&gt;conspunto2d -->
<g id="edge5" class="edge">
<title>protopunto2d&#45;&gt;conspunto2d</title>
<path fill="none" stroke="black" d="M311.33,-199.86C311.21,-191.16 311.23,-182.22 311.39,-173.61"/>
<polygon fill="black" stroke="black" points="314.89,-173.71 311.66,-163.62 307.89,-173.52 314.89,-173.71"/>
</g>
<!-- Object -->
<g id="node6" class="node">
<title>Object</title>
<polygon fill="#decbe4" stroke="black" points="410,-100 410,-136 464,-136 464,-100 410,-100"/>
<text text-anchor="middle" x="437" y="-114.3" font-family="Times New Roman,serif" font-size="14.00">Object</text>
</g>
<!-- protopunto2d&#45;&gt;Object -->
<g id="edge6" class="edge">
<title>protopunto2d&#45;&gt;Object</title>
<path fill="none" stroke="black" d="M369.44,-199.73C379.95,-187.65 390.89,-174.96 401,-163 406.05,-157.02 411.43,-150.53 416.44,-144.41"/>
<polygon fill="black" stroke="black" points="418.89,-146.95 422.49,-136.99 413.46,-142.53 418.89,-146.95"/>
</g>
<!-- conspunto2d&#45;&gt;protopunto2d -->
<g id="edge8" class="edge">
<title>conspunto2d&#45;&gt;protopunto2d</title>
<path fill="none" stroke="black" d="M324.3,-162.11C324.6,-170.5 324.75,-179.5 324.75,-188.5"/>
<polygon fill="black" stroke="black" points="321.25,-188.32 324.68,-198.34 328.25,-188.37 321.25,-188.32"/>
</g>
<!-- null -->
<g id="node7" class="node">
<title>null</title>
<polygon fill="#e5d8bd" stroke="black" points="410,-0.5 410,-36.5 464,-36.5 464,-0.5 410,-0.5"/>
<text text-anchor="middle" x="437" y="-14.8" font-family="Times New Roman,serif" font-size="14.00">null</text>
</g>
<!-- Object&#45;&gt;null -->
<g id="edge7" class="edge">
<title>Object&#45;&gt;null</title>
<path fill="none" stroke="black" d="M437,-100.02C437,-85.62 437,-64.67 437,-47.75"/>
<polygon fill="black" stroke="black" points="440.5,-47.8 437,-37.8 433.5,-47.8 440.5,-47.8"/>
</g>
</g>
</svg>
