<?xml version="1.0" encoding="UTF-8" standalone="no"?>
<!DOCTYPE svg PUBLIC "-//W3C//DTD SVG 1.1//EN"
 "http://www.w3.org/Graphics/SVG/1.1/DTD/svg11.dtd">
<!-- Generated by graphviz version 2.42.4 (0)
 -->
<!-- Title: Herencia Pages: 1 -->
<svg width="715pt" height="385pt"
 viewBox="0.00 0.00 715.00 384.50" xmlns="http://www.w3.org/2000/svg" xmlns:xlink="http://www.w3.org/1999/xlink">
<g id="graph0" class="graph" transform="scale(1 1) rotate(0) translate(4 380.5)">
<title>Herencia</title>
<polygon fill="white" stroke="transparent" points="-4,4 -4,-380.5 711,-380.5 711,4 -4,4"/>
<!-- Alumno -->
<g id="node1" class="node">
<title>Alumno</title>
<polygon fill="#fbb4ae" stroke="black" points="0,-29.5 0,-145.5 256,-145.5 256,-29.5 0,-29.5"/>
<text text-anchor="middle" x="128" y="-127.3" font-family="Times,serif" font-size="14.00">Alumno</text>
<polyline fill="none" stroke="black" points="0,-116.5 256,-116.5 "/>
<text text-anchor="middle" x="128" y="-98.3" font-family="Times,serif" font-size="14.00">name: &quot;Alumno&quot;</text>
<polyline fill="none" stroke="black" points="0,-87.5 256,-87.5 "/>
<text text-anchor="middle" x="128" y="-69.3" font-family="Times,serif" font-size="14.00">prototype: ref</text>
<polyline fill="none" stroke="black" points="0,-58.5 256,-58.5 "/>
<text text-anchor="middle" x="128" y="-40.3" font-family="Times,serif" font-size="14.00">Alumno(nombre, apellidos,...){...}</text>
</g>
<!-- Prototype (Alumno) -->
<g id="node2" class="node">
<title>Prototype (Alumno)</title>
<polygon fill="#fed9a6" stroke="black" points="168.5,-231 168.5,-376 375.5,-376 375.5,-231 168.5,-231"/>
<text text-anchor="middle" x="272" y="-357.8" font-family="Times,serif" font-size="14.00">Prototype (Alumno)</text>
<polyline fill="none" stroke="black" points="168.5,-347 375.5,-347 "/>
<text text-anchor="middle" x="272" y="-328.8" font-family="Times,serif" font-size="14.00">constructor: ref</text>
<polyline fill="none" stroke="black" points="168.5,-318 375.5,-318 "/>
<text text-anchor="middle" x="272" y="-299.8" font-family="Times,serif" font-size="14.00">info: function(...)</text>
<polyline fill="none" stroke="black" points="168.5,-289 375.5,-289 "/>
<text text-anchor="middle" x="272" y="-270.8" font-family="Times,serif" font-size="14.00">mayorDeEdad: function(...)</text>
<polyline fill="none" stroke="black" points="168.5,-260 375.5,-260 "/>
<text text-anchor="middle" x="272" y="-241.8" font-family="Times,serif" font-size="14.00">imprime: function(...)</text>
</g>
<!-- Alumno&#45;&gt;Prototype (Alumno) -->
<g id="edge4" class="edge">
<title>Alumno:ref&#45;&gt;Prototype (Alumno)</title>
<path fill="none" stroke="black" d="M256,-72.5C256,-72.5 261.67,-154.39 266.26,-220.66"/>
<polygon fill="black" stroke="black" points="262.78,-220.99 266.96,-230.73 269.76,-220.51 262.78,-220.99"/>
</g>
<!-- Prototype (Alumno)&#45;&gt;Alumno -->
<g id="edge3" class="edge">
<title>Prototype (Alumno):fcons&#45;&gt;Alumno</title>
<path fill="none" stroke="black" d="M168,-332.5C168,-332.5 150.95,-228.07 139.11,-155.57"/>
<polygon fill="black" stroke="black" points="142.55,-154.87 137.48,-145.56 135.64,-155.99 142.55,-154.87"/>
</g>
<!-- juan -->
<g id="node3" class="node">
<title>juan</title>
<polygon fill="#ccebc5" stroke="black" points="325.5,-0.5 325.5,-174.5 506.5,-174.5 506.5,-0.5 325.5,-0.5"/>
<text text-anchor="middle" x="416" y="-156.3" font-family="Times,serif" font-size="14.00">juan</text>
<polyline fill="none" stroke="black" points="325.5,-145.5 506.5,-145.5 "/>
<text text-anchor="middle" x="416" y="-127.3" font-family="Times,serif" font-size="14.00">prototype=ref</text>
<polyline fill="none" stroke="black" points="325.5,-116.5 506.5,-116.5 "/>
<text text-anchor="middle" x="416" y="-98.3" font-family="Times,serif" font-size="14.00">nombre: &quot;Juan&quot;</text>
<polyline fill="none" stroke="black" points="325.5,-87.5 506.5,-87.5 "/>
<text text-anchor="middle" x="416" y="-69.3" font-family="Times,serif" font-size="14.00">apellidos: &quot;López Caro&quot;</text>
<polyline fill="none" stroke="black" points="325.5,-58.5 506.5,-58.5 "/>
<text text-anchor="middle" x="416" y="-40.3" font-family="Times,serif" font-size="14.00">edad:23</text>
<polyline fill="none" stroke="black" points="325.5,-29.5 506.5,-29.5 "/>
<text text-anchor="middle" x="416" y="-11.3" font-family="Times,serif" font-size="14.00">telefonos:[]</text>
</g>
<!-- juan&#45;&gt;Prototype (Alumno) -->
<g id="edge2" class="edge">
<title>juan:ref&#45;&gt;Prototype (Alumno)</title>
<path fill="none" stroke="black" d="M325,-131.5C325,-131.5 311.04,-176.79 297.46,-220.89"/>
<polygon fill="black" stroke="black" points="294.08,-219.97 294.48,-230.56 300.77,-222.03 294.08,-219.97"/>
</g>
<!-- paco -->
<g id="node4" class="node">
<title>paco</title>
<polygon fill="#decbe4" stroke="black" points="557,-0.5 557,-174.5 707,-174.5 707,-0.5 557,-0.5"/>
<text text-anchor="middle" x="632" y="-156.3" font-family="Times,serif" font-size="14.00">paco</text>
<polyline fill="none" stroke="black" points="557,-145.5 707,-145.5 "/>
<text text-anchor="middle" x="632" y="-127.3" font-family="Times,serif" font-size="14.00">prototype=ref</text>
<polyline fill="none" stroke="black" points="557,-116.5 707,-116.5 "/>
<text text-anchor="middle" x="632" y="-98.3" font-family="Times,serif" font-size="14.00">nombre: &quot;Paco&quot;</text>
<polyline fill="none" stroke="black" points="557,-87.5 707,-87.5 "/>
<text text-anchor="middle" x="632" y="-69.3" font-family="Times,serif" font-size="14.00">apellidos: &quot;Gómez&quot;</text>
<polyline fill="none" stroke="black" points="557,-58.5 707,-58.5 "/>
<text text-anchor="middle" x="632" y="-40.3" font-family="Times,serif" font-size="14.00">edad:21</text>
<polyline fill="none" stroke="black" points="557,-29.5 707,-29.5 "/>
<text text-anchor="middle" x="632" y="-11.3" font-family="Times,serif" font-size="14.00">telefonos:[]</text>
</g>
<!-- paco&#45;&gt;Prototype (Alumno) -->
<g id="edge1" class="edge">
<title>paco:ref&#45;&gt;Prototype (Alumno)</title>
<path fill="none" stroke="black" d="M557,-131.5C557,-131.5 464.08,-187.58 384.36,-235.69"/>
<polygon fill="black" stroke="black" points="382.45,-232.75 375.7,-240.92 386.07,-238.75 382.45,-232.75"/>
</g>
</g>
</svg>
